<svg xmlns="http://www.w3.org/2000/svg" width="256" height="256" viewBox="0 0 256 256">
  <!-- Base sand -->
  <rect width="256" height="256" fill="#c4a255"/>
  <!-- Sand color variation patches -->
  <ellipse cx="40"  cy="30"  rx="35" ry="22" fill="#d4b366" opacity="0.5"/>
  <ellipse cx="200" cy="60"  rx="40" ry="25" fill="#b49044" opacity="0.45"/>
  <ellipse cx="120" cy="120" rx="50" ry="30" fill="#d4b366" opacity="0.4"/>
  <ellipse cx="30"  cy="180" rx="35" ry="20" fill="#b49044" opacity="0.5"/>
  <ellipse cx="220" cy="200" rx="38" ry="24" fill="#d4b366" opacity="0.45"/>
  <ellipse cx="100" cy="240" rx="45" ry="22" fill="#b49044" opacity="0.4"/>
  <!-- Wind ripple lines -->
  <path d="M 0 55 Q 64 48 128 56 Q 192 64 256 52" fill="none" stroke="#b89040" stroke-width="1.5" opacity="0.4"/>
  <path d="M 0 120 Q 80 112 160 120 Q 220 126 256 118" fill="none" stroke="#b89040" stroke-width="1.5" opacity="0.35"/>
  <path d="M 0 195 Q 60 188 130 196 Q 200 204 256 190" fill="none" stroke="#b89040" stroke-width="1.5" opacity="0.4"/>
  <!-- Sand texture dots (lighter) -->
  <circle cx="18"  cy="15"  r="2" fill="#d4b366" opacity="0.6"/>
  <circle cx="55"  cy="72"  r="2" fill="#d4b366" opacity="0.5"/>
  <circle cx="92"  cy="25"  r="1.5" fill="#d4b366" opacity="0.55"/>
  <circle cx="148" cy="85"  r="2" fill="#d4b366" opacity="0.5"/>
  <circle cx="230" cy="30"  r="1.5" fill="#d4b366" opacity="0.55"/>
  <circle cx="185" cy="145" r="2" fill="#d4b366" opacity="0.5"/>
  <circle cx="70"  cy="160" r="1.5" fill="#d4b366" opacity="0.55"/>
  <circle cx="110" cy="210" r="2" fill="#d4b366" opacity="0.5"/>
  <circle cx="240" cy="155" r="1.5" fill="#d4b366" opacity="0.55"/>
  <circle cx="20"  cy="230" r="2" fill="#d4b366" opacity="0.5"/>
  <circle cx="160" cy="235" r="1.5" fill="#d4b366" opacity="0.55"/>
  <!-- Sand texture dots (darker) -->
  <circle cx="75"  cy="45"  r="1.5" fill="#b49044" opacity="0.5"/>
  <circle cx="135" cy="18"  r="2" fill="#b49044" opacity="0.45"/>
  <circle cx="210" cy="100" r="1.5" fill="#b49044" opacity="0.5"/>
  <circle cx="45"  cy="130" r="2" fill="#b49044" opacity="0.45"/>
  <circle cx="170" cy="175" r="1.5" fill="#b49044" opacity="0.5"/>
  <circle cx="85"  cy="220" r="2" fill="#b49044" opacity="0.45"/>
  <circle cx="245" cy="240" r="1.5" fill="#b49044" opacity="0.5"/>
  <!-- Pebbles -->
  <ellipse cx="100" cy="50"  rx="5" ry="3.5" fill="#9a7a40" opacity="0.7"/>
  <ellipse cx="25"  cy="100" rx="4" ry="3"   fill="#9a7a40" opacity="0.65"/>
  <ellipse cx="195" cy="125" rx="6" ry="4"   fill="#9a7a40" opacity="0.7"/>
  <ellipse cx="140" cy="195" rx="5" ry="3.5" fill="#9a7a40" opacity="0.65"/>
  <ellipse cx="230" cy="80"  rx="4" ry="3"   fill="#9a7a40" opacity="0.7"/>
  <!-- Tiny ant trail dots -->
  <circle cx="155" cy="40"  r="1" fill="#806030" opacity="0.6"/>
  <circle cx="160" cy="45"  r="1" fill="#806030" opacity="0.6"/>
  <circle cx="165" cy="42"  r="1" fill="#806030" opacity="0.6"/>
  <circle cx="170" cy="47"  r="1" fill="#806030" opacity="0.6"/>
  <circle cx="50"  cy="200" r="1" fill="#806030" opacity="0.55"/>
  <circle cx="55"  cy="205" r="1" fill="#806030" opacity="0.55"/>
  <circle cx="60"  cy="202" r="1" fill="#806030" opacity="0.55"/>
  <circle cx="65"  cy="207" r="1" fill="#806030" opacity="0.55"/>
</svg>
